<svg xmlns="http://www.w3.org/2000/svg" width="56" height="56" viewBox="0 0 56 56"><path fill="#444" d="M52 47V23q-1 1.125-2.156 2.062Q41.47 31.5 36.53 35.625q-1.593 1.344-2.593 2.094t-2.703 1.515T28.03 40h-.062q-1.5 0-3.203-.765t-2.703-1.516-2.594-2.095Q14.53 31.5 6.155 25.062 5 24.124 4 23v24q0 .406.296.703T5 48h46q.405 0 .702-.297T52 47zm0-32.844v-.766l-.016-.406-.094-.39-.172-.282-.28-.234-.44-.078H5q-.405 0-.702.297T4 13q0 5.25 4.593 8.875 6.03 4.75 12.53 9.906.19.157 1.095.923t1.438 1.172 1.39.984 1.58.858 1.343.28h.062q.625 0 1.344-.28t1.578-.86 1.39-.983 1.44-1.172 1.093-.922q6.5-5.155 12.53-9.905 1.688-1.344 3.142-3.61T52 14.158zM56 13v34q0 2.062-1.47 3.53T51 52H5q-2.062 0-3.53-1.47T0 47V13q0-2.062 1.47-3.53T5 8h46q2.062 0 3.53 1.47T56 13z"/></svg>