<svg xmlns="http://www.w3.org/2000/svg" width="52" height="56" viewBox="0 0 52 56"><path fill="#444" d="M22.97 24.875q0 1.125 1 2.203t2.42 2.125 2.83 2.297 2.405 3.25 1 4.438q0 2.813-1.5 5.406-2.25 3.812-6.594 5.61T15.22 52q-4.125 0-7.703-1.297t-5.36-4.297Q1 44.53 1 42.312q0-2.53 1.39-4.687t3.704-3.594q4.094-2.56 12.625-3.124-1-1.313-1.485-2.313t-.484-2.28q0-1.126.657-2.657-1.438.125-2.125.125-4.625 0-7.797-3.015t-3.172-7.64q0-2.563 1.125-4.97T8.532 4.06Q10.938 2 14.235 1t6.797-1h13.062l-4.312 2.75h-4.094q2.313 1.97 3.5 4.156t1.187 5q0 2.25-.766 4.047t-1.845 2.907-2.172 2.03-1.86 1.923-.765 2.062zm-4.564-3q1.187 0 2.437-.516T22.905 20q1.656-1.78 1.656-4.97 0-1.812-.53-3.905t-1.516-4.047-2.64-3.234-3.657-1.28q-1.313 0-2.578.608t-2.048 1.64q-1.47 1.845-1.47 5 0 1.44.313 3.048t.984 3.22 1.624 2.89 2.344 2.094 3.016.812zm.063 27.28q1.812 0 3.483-.405t3.094-1.22 2.28-2.28.86-3.406q0-.78-.22-1.53T27.516 39t-.844-1.297-.92-1.094-1.204-1.08-1.14-.905-1.298-.938-1.14-.812q-.5-.063-1.5-.063-1.657 0-3.282.22t-3.36.78-3.03 1.438-2.14 2.328-.845 3.297q0 2.188 1.095 3.86t2.86 2.593 3.718 1.375 3.984.453zm25.31-27.374h6.657v3.376H43.78V32H40.5v-6.844h-6.625V21.78H40.5V15h3.28v6.78z"/></svg>