<svg xmlns="http://www.w3.org/2000/svg" width="48" height="56" viewBox="0 0 48 56"><path fill="#444" d="M47.22 33q0 .156-.032.22-2 8.374-8.375 13.577T23.875 52q-4.563 0-8.828-1.72t-7.61-4.905l-4.03 4.03Q2.813 50 2 50t-1.405-.594T0 48V34q0-.812.595-1.406T2 32h14q.813 0 1.407.594T18 34t-.593 1.406l-4.28 4.28q2.218 2.063 5.03 3.19T24 44q4.188 0 7.813-2.03t5.813-5.595q.344-.53 1.656-3.656.25-.72.938-.72h6q.406 0 .703.297t.297.703zM48 8v14q0 .812-.594 1.406T46 24H32q-.812 0-1.406-.594T30 22t.594-1.406l4.312-4.312Q30.28 12.002 24 12.002q-4.187 0-7.812 2.03t-5.813 5.594q-.344.53-1.656 3.656-.25.72-.94.72H1.563q-.406 0-.703-.298T.56 23v-.218Q2.592 14.407 9 9.204T24 4q4.563 0 8.875 1.735t7.656 4.89l4.064-4.03Q45.188 6 46 6t1.406.595T48 8z"/></svg>