<svg xmlns="http://www.w3.org/2000/svg" width="48" height="56" viewBox="0 0 48 56"><path fill="#444" d="M8 42q0-.812-.594-1.406T6 40t-1.406.594T4 42t.594 1.406T6 44t1.406-.594T8 42zm36-18q0-1.594-1.22-2.797T40 20H29q0-1.813 1.5-4.984T32 10q0-3.063-1-4.53T27 4q-.812.812-1.187 2.656t-.953 3.922T23 14q-.686.72-2.405 2.844-.125.156-.72.938t-.983 1.28-1.078 1.33-1.25 1.374-1.203 1.11-1.25.843-1.108.28h-1v20h1q.406 0 .984.094t1.03.203 1.188.344 1.094.36 1.11.39.905.33Q25.907 48 30 48h3.782q6 0 6-5.22 0-.81-.156-1.75.938-.5 1.484-1.64t.547-2.297-.563-2.156q1.656-1.562 1.656-3.72 0-.78-.312-1.733T41.658 28q1-.03 1.67-1.47t.673-2.53zm4-.03q0 2.78-1.53 5.093.28 1.03.28 2.156 0 2.405-1.187 4.5.094.655.094 1.343 0 3.156-1.875 5.562.03 4.344-2.656 6.86T34.032 52h-4.03q-3 0-5.923-.703t-6.767-2.047Q13.688 48 13 48H4q-1.655 0-2.827-1.172T0 44V24q0-1.656 1.173-2.828T4 20h8.563q1.125-.75 4.28-4.844 1.814-2.344 3.345-4 .75-.78 1.11-2.672t.952-3.953 1.938-3.374Q25.408 0 27 0q2.626 0 4.72 1.016t3.188 3.172T36.002 10q0 2.907-1.5 6h5.5q3.25 0 5.625 2.376t2.375 5.594z"/></svg>