<?xml version="1.0" encoding="utf-8"?>
<!-- Generated by IcoMoon.io -->
<!DOCTYPE svg PUBLIC "-//W3C//DTD SVG 1.1//EN" "http://www.w3.org/Graphics/SVG/1.1/DTD/svg11.dtd">
<svg version="1.1" xmlns="http://www.w3.org/2000/svg" xmlns:xlink="http://www.w3.org/1999/xlink" width="56" height="56" viewBox="0 0 56 56">
<path fill="#444444" d="M26 31.25v-6q-5.656 0.5-12 3.656v5.781q6.406-3 12-3.437zM26 18.187v-6.156q-5.375 0.25-12 3.937v5.906q6.719-3.469 12-3.688zM52 32.656v-5.75q-7.344 3.625-12 2.219v-7q-0.625-0.188-1.219-0.469-0.156-0.094-1.031-0.531t-1.078-0.531-0.984-0.469-1.078-0.484-1.016-0.406-1.125-0.391-1.094-0.266-1.234-0.234-1.234-0.125-1.375-0.063q-0.719 0-1.531 0.094v6.937h0.594q3.188 0 6.016 0.906t6.172 2.562q0.594 0.281 1.219 0.469v5.875q1.313 0.531 2.844 0.531 3.75 0 9.156-2.875zM52 19.313v-5.906q-5.281 2.844-9.562 2.844-1.406 0-2.437-0.25v6.125q4.625 1.313 12-2.813zM10 8q0 1.094-0.547 2t-1.453 1.438v39.563q0 0.438-0.281 0.719t-0.719 0.281h-2q-0.438 0-0.719-0.281t-0.281-0.719v-39.563q-0.906-0.531-1.453-1.438t-0.547-2q0-1.656 1.172-2.828t2.828-1.172 2.828 1.172 1.172 2.828zM56 10v23.844q0 1.219-1.094 1.781-0.312 0.156-0.531 0.281-6.812 3.625-11.531 3.625-2.75 0-4.938-1.094l-0.875-0.438q-2-1.031-3.094-1.5t-2.844-0.906-3.563-0.438q-3.188 0-7.359 1.375t-7.141 3.188q-0.469 0.281-1.031 0.281-0.5 0-1-0.25-1-0.594-1-1.75v-23.188q0-1.094 0.969-1.719 1.094-0.656 2.453-1.328t3.563-1.625 4.766-1.547 4.844-0.594q3.5 0 6.531 0.969t6.531 2.688q1.187 0.594 2.781 0.594 3.812 0 9.688-3.5 0.687-0.375 0.969-0.531 0.969-0.5 1.938 0.063 0.969 0.625 0.969 1.719z"></path>
</svg>
