<?xml version="1.0" encoding="utf-8"?>
<!-- Generated by IcoMoon.io -->
<!DOCTYPE svg PUBLIC "-//W3C//DTD SVG 1.1//EN" "http://www.w3.org/Graphics/SVG/1.1/DTD/svg11.dtd">
<svg version="1.1" xmlns="http://www.w3.org/2000/svg" xmlns:xlink="http://www.w3.org/1999/xlink" width="60" height="56" viewBox="0 0 60 56">
<path fill="#444444" d="M33.187 22.25v-3.688q0-1.313-0.938-2.25t-2.25-0.938-2.25 0.938-0.938 2.25v19.125q0 5.469-3.938 9.344t-9.469 3.875q-5.562 0-9.484-3.922t-3.922-9.484v-8.313h10.25v8.187q0 1.344 0.938 2.266t2.25 0.922 2.25-0.922 0.938-2.266v-19.375q0-5.344 3.953-9.125t9.422-3.781q5.5 0 9.437 3.812t3.938 9.188v4.25l-6.094 1.813zM49.75 29.187h10.25v8.313q0 5.562-3.922 9.484t-9.484 3.922q-5.531 0-9.469-3.891t-3.938-9.391v-8.375l4.094 1.906 6.094-1.813v8.438q0 1.313 0.938 2.234t2.25 0.922 2.25-0.922 0.938-2.234v-8.594z"></path>
</svg>
