<svg xmlns="http://www.w3.org/2000/svg" viewBox="0 0 48 56"><path fill="#fff" d="M10.906 19.53V50.5H.594V19.53h10.312zm.657-9.56q.03 2.28-1.578 3.81T5.75 15.313H5.69q-2.562 0-4.125-1.53T0 9.968q0-2.314 1.61-3.83t4.203-1.515T9.97 6.14t1.593 3.83zM48 32.75V50.5H37.72V33.938q0-3.28-1.267-5.14t-3.953-1.86q-1.97 0-3.297 1.078t-1.984 2.672q-.345.938-.345 2.53V50.5h-10.28q.062-12.47.062-20.22t-.03-9.25l-.032-1.5h10.28v4.5h-.062q.625-1 1.28-1.75t1.767-1.624 2.72-1.36 3.577-.483q5.344 0 8.594 3.547T48 32.75z"/></svg>