<svg xmlns="http://www.w3.org/2000/svg" viewBox="0 0 52 56"><path fill="#fff" d="M50.625 12.75q-2.094 3.063-5.062 5.22.03.437.03 1.312 0 4.063-1.186 8.11t-3.61 7.765-5.765 6.578-8.063 4.563T16.874 48q-8.47 0-15.5-4.53 1.094.125 2.437.125 7.03 0 12.53-4.312-3.28-.063-5.874-2.016t-3.563-4.984q1.03.156 1.906.156 1.345 0 2.657-.345-3.5-.72-5.797-3.484t-2.297-6.42v-.126q2.125 1.187 4.563 1.28-2.062-1.374-3.28-3.593t-1.22-4.812q0-2.75 1.375-5.094 3.782 4.656 9.204 7.453t11.61 3.11q-.25-1.188-.25-2.314 0-4.187 2.952-7.14t7.14-2.954q4.376 0 7.376 3.187 3.406-.656 6.406-2.437-1.156 3.594-4.438 5.562 2.906-.312 5.813-1.562z"/></svg>