<?xml version="1.0" encoding="utf-8"?>
<!-- Generated by IcoMoon.io -->
<!DOCTYPE svg PUBLIC "-//W3C//DTD SVG 1.1//EN" "http://www.w3.org/Graphics/SVG/1.1/DTD/svg11.dtd">
<svg version="1.1" xmlns="http://www.w3.org/2000/svg" xmlns:xlink="http://www.w3.org/1999/xlink" viewBox="0 0 52 56">
<path fill="#fff" d="M50.625 12.75q-2.094 3.063-5.062 5.219 0.031 0.438 0.031 1.313 0 4.063-1.187 8.109t-3.609 7.766-5.766 6.578-8.063 4.563-10.094 1.703q-8.469 0-15.5-4.531 1.094 0.125 2.437 0.125 7.031 0 12.531-4.312-3.281-0.063-5.875-2.016t-3.563-4.984q1.031 0.156 1.906 0.156 1.344 0 2.656-0.344-3.5-0.719-5.797-3.484t-2.297-6.422v-0.125q2.125 1.187 4.563 1.281-2.062-1.375-3.281-3.594t-1.219-4.813q0-2.75 1.375-5.094 3.781 4.656 9.203 7.453t11.609 3.109q-0.25-1.187-0.25-2.313 0-4.187 2.953-7.141t7.141-2.953q4.375 0 7.375 3.188 3.406-0.656 6.406-2.437-1.156 3.594-4.438 5.562 2.906-0.312 5.813-1.562z"></path>
</svg>
