<?xml version="1.0" encoding="utf-8"?>
<!-- Generated by IcoMoon.io -->
<!DOCTYPE svg PUBLIC "-//W3C//DTD SVG 1.1//EN" "http://www.w3.org/Graphics/SVG/1.1/DTD/svg11.dtd">
<svg version="1.1" xmlns="http://www.w3.org/2000/svg" xmlns:xlink="http://www.w3.org/1999/xlink" width="48" height="56" viewBox="0 0 48 56">
<path fill="#444444" d="M45.875 11.875q0.875 0.875 1.5 2.375t0.625 2.75v36q0 1.25-0.875 2.125t-2.125 0.875h-42q-1.25 0-2.125-0.875t-0.875-2.125v-50q0-1.25 0.875-2.125t2.125-0.875h28q1.25 0 2.75 0.625t2.375 1.5zM32 4.25v11.75h11.75q-0.312-0.906-0.687-1.281l-9.781-9.781q-0.375-0.375-1.281-0.687zM44 52v-32h-13q-1.25 0-2.125-0.875t-0.875-2.125v-13h-24v48h40zM40 38v10h-32v-6l6-6 4 4 12-12zM14 32q-2.5 0-4.25-1.75t-1.75-4.25 1.75-4.25 4.25-1.75 4.25 1.75 1.75 4.25-1.75 4.25-4.25 1.75z"></path>
</svg>
