<?xml version="1.0" encoding="utf-8"?>
<!-- Generated by IcoMoon.io -->
<!DOCTYPE svg PUBLIC "-//W3C//DTD SVG 1.1//EN" "http://www.w3.org/Graphics/SVG/1.1/DTD/svg11.dtd">
<svg version="1.1" xmlns="http://www.w3.org/2000/svg" xmlns:xlink="http://www.w3.org/1999/xlink" width="60" height="56" viewBox="0 0 60 56">
<path fill="#444444" d="M20 18q0 2.5-1.75 4.25t-4.25 1.75-4.25-1.75-1.75-4.25 1.75-4.25 4.25-1.75 4.25 1.75 1.75 4.25zM52 30v14h-44v-6l10-10 5 5 16-16zM55 8h-50q-0.406 0-0.703 0.297t-0.297 0.703v38q0 0.406 0.297 0.703t0.703 0.297h50q0.406 0 0.703-0.297t0.297-0.703v-38q0-0.406-0.297-0.703t-0.703-0.297zM60 9v38q0 2.062-1.469 3.531t-3.531 1.469h-50q-2.062 0-3.531-1.469t-1.469-3.531v-38q0-2.062 1.469-3.531t3.531-1.469h50q2.062 0 3.531 1.469t1.469 3.531z"></path>
</svg>
