<svg xmlns="http://www.w3.org/2000/svg" width="48" height="56" viewBox="0 0 48 56"><path fill="#444" d="M45.875 11.875q.875.875 1.5 2.375T48 17v36q0 1.25-.875 2.125T45 56H3q-1.25 0-2.125-.875T0 53V3Q0 1.75.875.875T3 0h28q1.25 0 2.75.625t2.375 1.5zM32 4.25V16h11.75q-.312-.906-.687-1.28l-9.78-9.782Q32.906 4.563 32 4.25zM44 52V20H31q-1.25 0-2.125-.875T28 17V4H4v48h40zM15 24q.25-.344.656-.39t.75.202L18 25q.344.25.39.655t-.202.75L12.5 34l5.688 7.593q.25.344.203.75T18 43l-1.594 1.186q-.344.25-.75.203T15 43.997l-7.063-9.406q-.438-.594 0-1.187zm25.062 9.406q.438.594 0 1.187L33 44q-.25.343-.657.39t-.75-.203L30 43q-.345-.25-.392-.656t.203-.75L35.5 34l-5.69-7.594q-.25-.344-.202-.75t.39-.656l1.595-1.187q.344-.25.75-.203T33 24zM20.688 47.813q-.406-.063-.64-.406t-.173-.75l4.312-25.97q.063-.405.406-.64t.75-.172l1.97.312q.405.063.64.406t.172.75l-4.312 25.97q-.063.405-.406.64t-.75.172z"/></svg>