<svg xmlns="http://www.w3.org/2000/svg" width="56" height="56" viewBox="0 0 56 56"><path fill="#444" d="M8 42q0-.812-.594-1.406T6 40t-1.406.594T4 42t.594 1.406T6 44t1.406-.594T8 42zm44-18q0-1.594-1.22-2.797T48 20H30q0-.625.47-1.516t1.03-1.72 1.03-2.124T33 12q0-2.095-1.39-3.048T28 8q-.75 0-2.813 4.343-.75 1.375-1.156 2.03-1.25 2-3.5 4.532-2.218 2.53-3.155 3.312-2.156 1.78-4.375 1.78h-1v20h1q2.25 0 5.22 1t6.046 2 5.61 1q5.905 0 5.905-5.218 0-.813-.155-1.75.938-.5 1.484-1.642t.546-2.297-.563-2.155q1.656-1.562 1.656-3.72 0-.78-.313-1.733t-.78-1.484H48q1.625 0 2.813-1.187T52 24zm4-.03q0 3.28-2.36 5.655T48 32h-5.28q-.126 1.938-1.157 3.72.094.655.094 1.343 0 3.156-1.875 5.562.03 4.344-2.656 6.86T30.032 52q-4.156 0-10.063-2.156Q14.843 48 13 48H4q-1.656 0-2.828-1.172T0 44V24q0-1.656 1.172-2.828T4 20h9q.312 0 .672-.14t.734-.44.703-.562.75-.703.64-.672.594-.672.438-.53q2.03-2.313 3.125-4.03.406-.657 1.03-1.94t1.157-2.25 1.266-1.968 1.72-1.547T28 3.998q3.907 0 6.454 2.094T37 11.998q0 2.125-.686 4H48q3.25 0 5.626 2.375T56 23.967z"/></svg>