<?xml version="1.0" encoding="utf-8"?>
<!-- Generated by IcoMoon.io -->
<!DOCTYPE svg PUBLIC "-//W3C//DTD SVG 1.1//EN" "http://www.w3.org/Graphics/SVG/1.1/DTD/svg11.dtd">
<svg version="1.1" xmlns="http://www.w3.org/2000/svg" xmlns:xlink="http://www.w3.org/1999/xlink" width="48" height="56" viewBox="0 0 48 56">
<path fill="#444444" d="M10.906 19.531v30.969h-10.312v-30.969h10.312zM11.563 9.969q0.031 2.281-1.578 3.812t-4.234 1.531h-0.063q-2.562 0-4.125-1.531t-1.562-3.812q0-2.313 1.609-3.828t4.203-1.516 4.156 1.516 1.594 3.828zM48 32.75v17.75h-10.281v-16.562q0-3.281-1.266-5.141t-3.953-1.859q-1.969 0-3.297 1.078t-1.984 2.672q-0.344 0.938-0.344 2.531v17.281h-10.281q0.063-12.469 0.063-20.219t-0.031-9.25l-0.031-1.5h10.281v4.5h-0.063q0.625-1 1.281-1.75t1.766-1.625 2.719-1.359 3.578-0.484q5.344 0 8.594 3.547t3.25 10.391z"></path>
</svg>
