<svg xmlns="http://www.w3.org/2000/svg" width="48" height="56" viewBox="0 0 48 56"><path fill="#444" d="M32 46.875q-1.313-7.53-4.375-15.562h-.063l-.063.03q-.5.19-1.345.517T23 33.39t-4.282 2.563-4.094 3.578-3.22 4.626l-.468-.344q5.75 4.687 13.062 4.687 4.125 0 8-1.626zm-5.78-18.97q-.657-1.53-1.657-3.468-9.72 2.906-21.03 2.906-.032.22-.032.656 0 3.874 1.376 7.39t3.875 6.297q1.563-2.78 3.86-5.203t4.453-3.89 4.078-2.532 3.11-1.5l1.156-.406q.125-.03.406-.11t.406-.14zm-3.345-6.624q-3.75-6.655-7.625-11.812-4.312 2.03-7.312 5.813t-4 8.5q9.437 0 18.938-2.5zm21.375 9.97q-6.563-1.875-12.78-.906 2.718 7.47 4 14.656 3.468-2.344 5.78-5.922t3-7.828zM19.094 8.094q-.03 0-.063.03.032-.03.064-.03zm18.437 4.53Q31.75 7.5 24 7.5q-2.375 0-4.844.594 4.094 5.313 7.687 11.938 2.156-.812 4.063-1.89t3.016-1.923 2.047-1.782 1.17-1.266zm6.97 15.157q-.094-7.25-4.656-12.812l-.03.03q-.282.376-.595.767t-1.36 1.39-2.22 1.892-3.124 2.03-4.11 2.017q.782 1.656 1.376 2.97.063.187.203.546t.234.516q1.124-.156 2.327-.22t2.297-.062T37 26.89t2 .126 1.766.172 1.5.203 1.14.19.782.14zM48 28q0 6.53-3.22 12.047t-8.733 8.734T24 52t-12.047-3.22-8.734-8.733T0 28t3.22-12.047 8.733-8.734T24 4t12.047 3.22 8.734 8.733T48 28z"/></svg>