<?xml version="1.0" encoding="utf-8"?>
<!-- Generated by IcoMoon.io -->
<!DOCTYPE svg PUBLIC "-//W3C//DTD SVG 1.1//EN" "http://www.w3.org/Graphics/SVG/1.1/DTD/svg11.dtd">
<svg version="1.1" xmlns="http://www.w3.org/2000/svg" xmlns:xlink="http://www.w3.org/1999/xlink" width="48" height="56" viewBox="0 0 48 56">
<path fill="#444444" d="M32 46.875q-1.313-7.531-4.375-15.562h-0.063l-0.063 0.031q-0.5 0.188-1.344 0.516t-3.156 1.531-4.281 2.562-4.094 3.578-3.219 4.625l-0.469-0.344q5.75 4.687 13.062 4.687 4.125 0 8-1.625zM26.219 27.906q-0.656-1.531-1.656-3.469-9.719 2.906-21.031 2.906-0.031 0.219-0.031 0.656 0 3.875 1.375 7.391t3.875 6.297q1.562-2.781 3.859-5.203t4.453-3.891 4.078-2.531 3.109-1.5l1.156-0.406q0.125-0.031 0.406-0.109t0.406-0.141zM22.875 21.281q-3.75-6.656-7.625-11.813-4.312 2.031-7.312 5.813t-4 8.5q9.437 0 18.938-2.5zM44.25 31.25q-6.563-1.875-12.781-0.906 2.719 7.469 4 14.656 3.469-2.344 5.781-5.922t3-7.828zM19.094 8.094q-0.031 0-0.063 0.031 0.031-0.031 0.063-0.031zM37.531 12.625q-5.781-5.125-13.531-5.125-2.375 0-4.844 0.594 4.094 5.313 7.687 11.938 2.156-0.812 4.063-1.891t3.016-1.922 2.047-1.781 1.172-1.266zM44.5 27.781q-0.094-7.25-4.656-12.813l-0.031 0.031q-0.281 0.375-0.594 0.766t-1.359 1.391-2.219 1.891-3.125 2.031-4.109 2.016q0.781 1.656 1.375 2.969 0.063 0.188 0.203 0.547t0.234 0.516q1.125-0.156 2.328-0.219t2.297-0.063 2.156 0.047 2 0.125 1.766 0.172 1.5 0.203 1.141 0.188 0.781 0.141zM48 28q0 6.531-3.219 12.047t-8.734 8.734-12.047 3.219-12.047-3.219-8.734-8.734-3.219-12.047 3.219-12.047 8.734-8.734 12.047-3.219 12.047 3.219 8.734 8.734 3.219 12.047z"></path>
</svg>
