<?xml version="1.0" encoding="utf-8"?>
<!-- Generated by IcoMoon.io -->
<!DOCTYPE svg PUBLIC "-//W3C//DTD SVG 1.1//EN" "http://www.w3.org/Graphics/SVG/1.1/DTD/svg11.dtd">
<svg version="1.1" xmlns="http://www.w3.org/2000/svg" xmlns:xlink="http://www.w3.org/1999/xlink" width="56" height="56" viewBox="0 0 56 56">
<path fill="#444444" d="M52 47v-24q-1 1.125-2.156 2.062-8.375 6.437-13.313 10.563-1.594 1.344-2.594 2.094t-2.703 1.516-3.203 0.766h-0.063q-1.5 0-3.203-0.766t-2.703-1.516-2.594-2.094q-4.938-4.125-13.313-10.563-1.156-0.938-2.156-2.062v24q0 0.406 0.297 0.703t0.703 0.297h46q0.406 0 0.703-0.297t0.297-0.703zM52 14.156v-0.766t-0.016-0.406-0.094-0.391-0.172-0.281-0.281-0.234-0.438-0.078h-46q-0.406 0-0.703 0.297t-0.297 0.703q0 5.25 4.594 8.875 6.031 4.75 12.531 9.906 0.188 0.156 1.094 0.922t1.438 1.172 1.391 0.984 1.578 0.859 1.344 0.281h0.063q0.625 0 1.344-0.281t1.578-0.859 1.391-0.984 1.438-1.172 1.094-0.922q6.5-5.156 12.531-9.906 1.687-1.344 3.141-3.609t1.453-4.109zM56 13v34q0 2.062-1.469 3.531t-3.531 1.469h-46q-2.062 0-3.531-1.469t-1.469-3.531v-34q0-2.062 1.469-3.531t3.531-1.469h46q2.062 0 3.531 1.469t1.469 3.531z"></path>
</svg>
