<svg xmlns="http://www.w3.org/2000/svg" width="56" height="56" viewBox="0 0 56 56"><path fill="#444" d="M26 31.25v-6q-5.656.5-12 3.656v5.78q6.406-3 12-3.436zm0-13.063V12.03q-5.375.25-12 3.938v5.906q6.72-3.47 12-3.688zm26 14.47v-5.75q-7.344 3.624-12 2.218v-7q-.625-.188-1.22-.47-.155-.093-1.03-.53t-1.078-.53-.984-.47-1.078-.484-1.016-.405-1.125-.39-1.095-.267-1.234-.234-1.233-.125-1.375-.064q-.72 0-1.53.094v6.937h.593q3.188 0 6.016.906t6.173 2.562q.594.28 1.22.47v5.874q1.312.53 2.843.53 3.75 0 9.156-2.875zm0-13.344v-5.906q-5.28 2.844-9.562 2.844-1.406 0-2.437-.25v6.126q4.626 1.313 12-2.813zM10 8q0 1.094-.547 2T8 11.438V51q0 .44-.28.72T7 52H5q-.438 0-.72-.28T4 51V11.44q-.906-.53-1.453-1.438T2 8q0-1.656 1.172-2.828T6 4t2.828 1.172T10 8zm46 2v23.844q0 1.22-1.094 1.78-.312.157-.53.282-6.813 3.625-11.532 3.625-2.75 0-4.938-1.093L37.03 38q-2-1.032-3.093-1.5t-2.844-.907-3.563-.438q-3.188 0-7.36 1.375t-7.14 3.188q-.47.28-1.03.28-.5 0-1-.25-1-.593-1-1.75V14.812q0-1.093.968-1.718 1.094-.656 2.453-1.328t3.564-1.625T21.75 8.59t4.844-.594q3.5 0 6.53.97t6.532 2.687q1.187.594 2.78.594 3.813 0 9.69-3.5l.968-.532q.97-.5 1.938.063.97.626.97 1.72z"/></svg>