<?xml version="1.0" encoding="utf-8"?>
<!-- Generated by IcoMoon.io -->
<!DOCTYPE svg PUBLIC "-//W3C//DTD SVG 1.1//EN" "http://www.w3.org/Graphics/SVG/1.1/DTD/svg11.dtd">
<svg version="1.1" xmlns="http://www.w3.org/2000/svg" xmlns:xlink="http://www.w3.org/1999/xlink" width="52" height="56" viewBox="0 0 52 56">
<path fill="#444444" d="M22.969 24.875q0 1.125 1 2.203t2.422 2.125 2.828 2.297 2.406 3.25 1 4.438q0 2.813-1.5 5.406-2.25 3.812-6.594 5.609t-9.313 1.797q-4.125 0-7.703-1.297t-5.359-4.297q-1.156-1.875-1.156-4.094 0-2.531 1.391-4.687t3.703-3.594q4.094-2.562 12.625-3.125-1-1.313-1.484-2.313t-0.484-2.281q0-1.125 0.656-2.656-1.438 0.125-2.125 0.125-4.625 0-7.797-3.016t-3.172-7.641q0-2.562 1.125-4.969t3.094-4.094q2.406-2.062 5.703-3.063t6.797-1h13.062l-4.312 2.75h-4.094q2.313 1.969 3.5 4.156t1.187 5q0 2.25-0.766 4.047t-1.844 2.906-2.172 2.031-1.859 1.922-0.766 2.062zM18.406 21.875q1.187 0 2.437-0.516t2.062-1.359q1.656-1.781 1.656-4.969 0-1.813-0.531-3.906t-1.516-4.047-2.641-3.234-3.656-1.281q-1.313 0-2.578 0.609t-2.047 1.641q-1.469 1.844-1.469 5 0 1.438 0.312 3.047t0.984 3.219 1.625 2.891 2.344 2.094 3.016 0.812zM18.469 49.156q1.813 0 3.484-0.406t3.094-1.219 2.281-2.281 0.859-3.406q0-0.781-0.219-1.531t-0.453-1.313-0.844-1.297-0.922-1.094-1.203-1.078-1.141-0.906-1.297-0.938-1.141-0.812q-0.5-0.063-1.5-0.063-1.656 0-3.281 0.219t-3.359 0.781-3.031 1.438-2.141 2.328-0.844 3.297q0 2.188 1.094 3.859t2.859 2.594 3.719 1.375 3.984 0.453zM43.781 21.781h6.656v3.375h-6.656v6.844h-3.281v-6.844h-6.625v-3.375h6.625v-6.781h3.281v6.781z"></path>
</svg>
