<?xml version="1.0" encoding="utf-8"?>
<!-- Generated by IcoMoon.io -->
<!DOCTYPE svg PUBLIC "-//W3C//DTD SVG 1.1//EN" "http://www.w3.org/Graphics/SVG/1.1/DTD/svg11.dtd">
<svg version="1.1" xmlns="http://www.w3.org/2000/svg" xmlns:xlink="http://www.w3.org/1999/xlink" width="56" height="56" viewBox="0 0 56 56">
<path fill="#444444" d="M8 42q0-0.812-0.594-1.406t-1.406-0.594-1.406 0.594-0.594 1.406 0.594 1.406 1.406 0.594 1.406-0.594 0.594-1.406zM52 24q0-1.594-1.219-2.797t-2.781-1.203h-18q0-0.625 0.469-1.516t1.031-1.719 1.031-2.125 0.469-2.641q0-2.094-1.391-3.047t-3.609-0.953q-0.75 0-2.813 4.344-0.75 1.375-1.156 2.031-1.25 2-3.5 4.531-2.219 2.531-3.156 3.312-2.156 1.781-4.375 1.781h-1v20h1q2.25 0 5.219 1t6.047 2 5.609 1q5.906 0 5.906-5.219 0-0.812-0.156-1.75 0.938-0.5 1.484-1.641t0.547-2.297-0.563-2.156q1.656-1.562 1.656-3.719 0-0.781-0.312-1.734t-0.781-1.484h10.344q1.625 0 2.813-1.187t1.187-2.813zM56 23.969q0 3.281-2.359 5.656t-5.641 2.375h-5.281q-0.125 1.938-1.156 3.719 0.094 0.656 0.094 1.344 0 3.156-1.875 5.562 0.031 4.344-2.656 6.859t-7.094 2.516q-4.156 0-10.063-2.156-5.125-1.844-6.969-1.844h-9q-1.656 0-2.828-1.172t-1.172-2.828v-20q0-1.656 1.172-2.828t2.828-1.172h9q0.312 0 0.672-0.141t0.734-0.438 0.703-0.563 0.75-0.703 0.641-0.672 0.594-0.672 0.438-0.531q2.031-2.313 3.125-4.031 0.406-0.656 1.031-1.938t1.156-2.25 1.266-1.969 1.719-1.547 2.172-0.547q3.906 0 6.453 2.094t2.547 5.906q0 2.125-0.687 4h11.687q3.25 0 5.625 2.375t2.375 5.594z"></path>
</svg>
