<?xml version="1.0" encoding="utf-8"?>
<!-- Generated by IcoMoon.io -->
<!DOCTYPE svg PUBLIC "-//W3C//DTD SVG 1.1//EN" "http://www.w3.org/Graphics/SVG/1.1/DTD/svg11.dtd">
<svg version="1.1" xmlns="http://www.w3.org/2000/svg" xmlns:xlink="http://www.w3.org/1999/xlink" width="56" height="56" viewBox="0 0 56 56">
<path fill="#444444" d="M28 52q-0.812 0-1.375-0.563l-19.5-18.813q-0.312-0.25-0.859-0.812t-1.734-2.047-2.125-3.047-1.672-3.781-0.734-4.312q0-6.875 3.969-10.75t10.969-3.875q1.938 0 3.953 0.672t3.75 1.813 2.984 2.141 2.375 2.125q1.125-1.125 2.375-2.125t2.984-2.141 3.75-1.813 3.953-0.672q7 0 10.969 3.875t3.969 10.75q0 6.906-7.156 14.063l-19.469 18.75q-0.563 0.563-1.375 0.563z"></path>
</svg>
