<svg xmlns="http://www.w3.org/2000/svg" width="32" height="56" viewBox="0 0 32 56"><path fill="#444" d="M23 18q0 .406-.297.703T22 19t-.703-.297T21 18q0-1.438-1.687-2.22T16 15q-.405 0-.702-.297T15 14t.298-.703T16 13q1.563 0 3.11.5t2.72 1.687T23 18zm5 0q0-2.25-1.078-4.187T24.11 10.64t-3.845-1.937T16 8t-4.267.703T7.89 10.64t-2.814 3.173T3.998 18q0 3.156 2.125 5.625.312.344.953 1.03t.953 1.032q4 4.78 4.405 9.313h7.125q.406-4.53 4.406-9.313.312-.344.953-1.03t.952-1.032q2.125-2.47 2.125-5.625zm4 0q0 4.844-3.22 8.375-1.405 1.53-2.327 2.72t-1.86 2.983-1.062 3.36q1.47.874 1.47 2.56 0 1.157-.78 2 .78.845.78 2 0 1.626-1.406 2.532Q24 45.25 24 46q0 1.437-.984 2.218t-2.422.78q-.625 1.376-1.875 2.19t-2.72.81-2.72-.81-1.874-2.19q-1.438 0-2.422-.78T8 45.998q0-.75.406-1.468Q7 43.624 7 42q0-1.157.78-2Q7 39.154 7 38q0-1.688 1.47-2.563-.126-1.562-1.064-3.36t-1.86-2.983-2.327-2.72Q0 22.845 0 18q0-3.094 1.39-5.766t3.657-4.438 5.125-2.78T16 3.998t5.828 1.015 5.125 2.78 3.656 4.44T32 18z"/></svg>