<?xml version="1.0" encoding="utf-8"?>
<!-- Generated by IcoMoon.io -->
<!DOCTYPE svg PUBLIC "-//W3C//DTD SVG 1.1//EN" "http://www.w3.org/Graphics/SVG/1.1/DTD/svg11.dtd">
<svg version="1.1" xmlns="http://www.w3.org/2000/svg" xmlns:xlink="http://www.w3.org/1999/xlink" width="32" height="56" viewBox="0 0 32 56">
<path fill="#444444" d="M23 18q0 0.406-0.297 0.703t-0.703 0.297-0.703-0.297-0.297-0.703q0-1.438-1.687-2.219t-3.312-0.781q-0.406 0-0.703-0.297t-0.297-0.703 0.297-0.703 0.703-0.297q1.562 0 3.109 0.5t2.719 1.687 1.172 2.813zM28 18q0-2.25-1.078-4.187t-2.813-3.172-3.844-1.938-4.266-0.703-4.266 0.703-3.844 1.938-2.813 3.172-1.078 4.187q0 3.156 2.125 5.625 0.312 0.344 0.953 1.031t0.953 1.031q4 4.781 4.406 9.313h7.125q0.406-4.531 4.406-9.313 0.312-0.344 0.953-1.031t0.953-1.031q2.125-2.469 2.125-5.625zM32 18q0 4.844-3.219 8.375-1.406 1.531-2.328 2.719t-1.859 2.984-1.063 3.359q1.469 0.875 1.469 2.562 0 1.156-0.781 2 0.781 0.844 0.781 2 0 1.625-1.406 2.531 0.406 0.719 0.406 1.469 0 1.438-0.984 2.219t-2.422 0.781q-0.625 1.375-1.875 2.188t-2.719 0.812-2.719-0.812-1.875-2.188q-1.438 0-2.422-0.781t-0.984-2.219q0-0.75 0.406-1.469-1.406-0.906-1.406-2.531 0-1.156 0.781-2-0.781-0.844-0.781-2 0-1.687 1.469-2.562-0.125-1.562-1.063-3.359t-1.859-2.984-2.328-2.719q-3.219-3.531-3.219-8.375 0-3.094 1.391-5.766t3.656-4.438 5.125-2.781 5.828-1.016 5.828 1.016 5.125 2.781 3.656 4.438 1.391 5.766z"></path>
</svg>
