<?xml version="1.0" encoding="utf-8"?>
<!-- Generated by IcoMoon.io -->
<!DOCTYPE svg PUBLIC "-//W3C//DTD SVG 1.1//EN" "http://www.w3.org/Graphics/SVG/1.1/DTD/svg11.dtd">
<svg version="1.1" xmlns="http://www.w3.org/2000/svg" xmlns:xlink="http://www.w3.org/1999/xlink" width="24" height="56" viewBox="0 0 24 56">
<path fill="#444444" d="M14.5 44q0-1.031-0.734-1.766t-1.766-0.734-1.766 0.734-0.734 1.766 0.734 1.766 1.766 0.734 1.766-0.734 0.734-1.766zM21 39v-22q0-0.406-0.297-0.703t-0.703-0.297h-16q-0.406 0-0.703 0.297t-0.297 0.703v22q0 0.406 0.297 0.703t0.703 0.297h16q0.406 0 0.703-0.297t0.297-0.703zM15 12.5q0-0.5-0.5-0.5h-5q-0.5 0-0.5 0.5t0.5 0.5h5q0.5 0 0.5-0.5zM24 12v32q0 1.625-1.187 2.813t-2.813 1.187h-16q-1.625 0-2.813-1.187t-1.187-2.813v-32q0-1.625 1.187-2.813t2.813-1.187h16q1.625 0 2.813 1.187t1.187 2.813z"></path>
</svg>
