<?xml version="1.0" encoding="utf-8"?>
<!-- Generated by IcoMoon.io -->
<!DOCTYPE svg PUBLIC "-//W3C//DTD SVG 1.1//EN" "http://www.w3.org/Graphics/SVG/1.1/DTD/svg11.dtd">
<svg version="1.1" xmlns="http://www.w3.org/2000/svg" xmlns:xlink="http://www.w3.org/1999/xlink" width="56" height="56" viewBox="0 0 56 56">
<path fill="#444444" d="M55.125 0.344q1.031 0.75 0.844 2l-8 48q-0.156 0.906-1 1.406-0.438 0.25-0.969 0.25-0.344 0-0.75-0.156l-14.156-5.781-7.563 9.219q-0.563 0.719-1.531 0.719-0.406 0-0.687-0.125-0.594-0.219-0.953-0.734t-0.359-1.141v-10.906l27-33.094-33.406 28.906-12.344-5.062q-1.156-0.438-1.25-1.719-0.063-1.25 1-1.844l52-30q0.469-0.281 1-0.281 0.625 0 1.125 0.344z"></path>
</svg>
