<?xml version="1.0" encoding="utf-8"?>
<!-- Generated by IcoMoon.io -->
<!DOCTYPE svg PUBLIC "-//W3C//DTD SVG 1.1//EN" "http://www.w3.org/Graphics/SVG/1.1/DTD/svg11.dtd">
<svg version="1.1" xmlns="http://www.w3.org/2000/svg" xmlns:xlink="http://www.w3.org/1999/xlink" width="44" height="56" viewBox="0 0 44 56">
<path fill="#444444" d="M44 38.75q0 0.844-0.312 2.203t-0.656 2.141q-0.656 1.562-3.812 3.312-2.937 1.594-5.813 1.594-0.844 0-1.641-0.109t-1.797-0.391-1.484-0.453-1.734-0.641-1.531-0.563q-3.063-1.094-5.469-2.594-4-2.469-8.266-6.734t-6.734-8.266q-1.5-2.406-2.594-5.469-0.094-0.281-0.563-1.531t-0.641-1.734-0.453-1.484-0.391-1.797-0.109-1.641q0-2.875 1.594-5.813 1.75-3.156 3.312-3.812 0.781-0.344 2.141-0.656t2.203-0.312q0.438 0 0.656 0.094 0.563 0.188 1.656 2.375 0.344 0.594 0.938 1.687t1.094 1.984 0.969 1.672q0.094 0.125 0.547 0.781t0.672 1.109 0.219 0.891q0 0.625-0.891 1.562t-1.938 1.719-1.938 1.656-0.891 1.438q0 0.281 0.156 0.703t0.266 0.641 0.438 0.75 0.359 0.594q2.375 4.281 5.438 7.344t7.344 5.438q0.063 0.031 0.594 0.359t0.75 0.438 0.641 0.266 0.703 0.156q0.563 0 1.438-0.891t1.656-1.938 1.719-1.938 1.562-0.891q0.438 0 0.891 0.219t1.109 0.672 0.781 0.547q0.781 0.469 1.672 0.969t1.984 1.094 1.687 0.938q2.188 1.094 2.375 1.656 0.094 0.219 0.094 0.656z"></path>
</svg>
