<svg xmlns="http://www.w3.org/2000/svg" width="44" height="56" viewBox="0 0 44 56"><path fill="#444" d="M44 38.75q0 .844-.312 2.203t-.656 2.14q-.656 1.563-3.812 3.313Q36.283 48 33.407 48q-.844 0-1.64-.11t-1.798-.39-1.485-.453-1.734-.64-1.53-.564q-3.063-1.094-5.47-2.594-4-2.47-8.265-6.735T4.75 28.25q-1.5-2.407-2.593-5.47-.094-.28-.563-1.53t-.64-1.735T.5 18.03t-.39-1.796-.11-1.64q0-2.876 1.594-5.814 1.75-3.156 3.312-3.812.78-.344 2.14-.656T9.25 4q.438 0 .656.094.563.188 1.656 2.375.344.593.938 1.686t1.094 1.984.97 1.672q.093.125.546.78t.672 1.11.22.89q0 .626-.892 1.563t-1.938 1.72-1.938 1.655-.89 1.438q0 .28.155.703t.265.642.438.75.36.594Q13.936 27.936 17 31t7.344 5.438q.063.03.594.36t.75.437.64.266.704.157q.563 0 1.438-.89t1.656-1.94 1.72-1.937 1.56-.89q.44 0 .892.218t1.11.672.78.547q.78.47 1.672.97t1.984 1.093 1.687.938q2.19 1.094 2.376 1.656.094.22.094.656z"/></svg>