<?xml version="1.0" encoding="utf-8"?>
<!-- Generated by IcoMoon.io -->
<!DOCTYPE svg PUBLIC "-//W3C//DTD SVG 1.1//EN" "http://www.w3.org/Graphics/SVG/1.1/DTD/svg11.dtd">
<svg version="1.1" xmlns="http://www.w3.org/2000/svg" xmlns:xlink="http://www.w3.org/1999/xlink" width="48" height="56" viewBox="0 0 48 56">
<path fill="#444444" d="M48 28q0 6.531-3.219 12.047t-8.734 8.734-12.047 3.219q-3.469 0-6.812-1 1.844-2.906 2.437-5.125 0.281-1.063 1.687-6.594 0.625 1.219 2.281 2.109t3.563 0.891q3.781 0 6.75-2.141t4.594-5.891 1.625-8.438q0-3.563-1.859-6.688t-5.391-5.094-7.969-1.969q-3.281 0-6.125 0.906t-4.828 2.406-3.406 3.453-2.094 4.047-0.672 4.187q0 3.25 1.25 5.719t3.656 3.469q0.938 0.375 1.187-0.625 0.063-0.219 0.25-0.969t0.25-0.938q0.188-0.719-0.344-1.344-1.594-1.906-1.594-4.719 0-4.719 3.266-8.109t8.547-3.391q4.719 0 7.359 2.562t2.641 6.656q0 5.313-2.141 9.031t-5.484 3.719q-1.906 0-3.063-1.359t-0.719-3.266q0.25-1.094 0.828-2.922t0.938-3.219 0.359-2.359q0-1.562-0.844-2.594t-2.406-1.031q-1.938 0-3.281 1.781t-1.344 4.438q0 2.281 0.781 3.812l-3.094 13.062q-0.531 2.188-0.406 5.531-6.437-2.844-10.406-8.781t-3.969-13.219q0-6.531 3.219-12.047t8.734-8.734 12.047-3.219 12.047 3.219 8.734 8.734 3.219 12.047z"></path>
</svg>
