<svg xmlns="http://www.w3.org/2000/svg" width="48" height="56" viewBox="0 0 48 56"><path fill="#444" d="M48 28q0 6.53-3.22 12.047t-8.733 8.734T24 52q-3.47 0-6.812-1 1.844-2.906 2.437-5.125.28-1.063 1.687-6.594.625 1.22 2.28 2.11t3.564.89q3.78 0 6.75-2.14t4.594-5.89 1.625-8.44q0-3.562-1.86-6.687t-5.39-5.094-7.97-1.97q-3.28 0-6.124.906t-4.827 2.406-3.406 3.453-2.094 4.047-.672 4.187q0 3.25 1.25 5.718t3.657 3.47q.938.374 1.187-.626.063-.22.25-.97t.25-.937q.188-.72-.344-1.344-1.594-1.905-1.594-4.718 0-4.72 3.266-8.11t8.547-3.39q4.718 0 7.358 2.562t2.64 6.656q0 5.313-2.14 9.03t-5.484 3.72q-1.906 0-3.063-1.36t-.718-3.265q.25-1.094.828-2.922t.938-3.22.36-2.358q0-1.562-.845-2.594t-2.406-1.03q-1.938 0-3.28 1.78t-1.345 4.44q0 2.28.78 3.81L14.78 44.464q-.532 2.188-.407 5.53-6.437-2.843-10.406-8.78t-3.97-13.22q0-6.53 3.22-12.046t8.734-8.734T24 3.993t12.047 3.22 8.734 8.734 3.218 12.047z"/></svg>