<?xml version="1.0" encoding="utf-8"?>
<!-- Generated by IcoMoon.io -->
<!DOCTYPE svg PUBLIC "-//W3C//DTD SVG 1.1//EN" "http://www.w3.org/Graphics/SVG/1.1/DTD/svg11.dtd">
<svg version="1.1" xmlns="http://www.w3.org/2000/svg" xmlns:xlink="http://www.w3.org/1999/xlink" width="48" height="56" viewBox="0 0 48 56">
<path fill="#444444" d="M47.219 33q0 0.156-0.031 0.219-2 8.375-8.375 13.578t-14.938 5.203q-4.563 0-8.828-1.719t-7.609-4.906l-4.031 4.031q-0.594 0.594-1.406 0.594t-1.406-0.594-0.594-1.406v-14q0-0.812 0.594-1.406t1.406-0.594h14q0.812 0 1.406 0.594t0.594 1.406-0.594 1.406l-4.281 4.281q2.219 2.062 5.031 3.188t5.844 1.125q4.187 0 7.812-2.031t5.813-5.594q0.344-0.531 1.656-3.656 0.25-0.719 0.938-0.719h6q0.406 0 0.703 0.297t0.297 0.703zM48 8v14q0 0.812-0.594 1.406t-1.406 0.594h-14q-0.812 0-1.406-0.594t-0.594-1.406 0.594-1.406l4.312-4.312q-4.625-4.281-10.906-4.281-4.187 0-7.812 2.031t-5.813 5.594q-0.344 0.531-1.656 3.656-0.25 0.719-0.938 0.719h-6.219q-0.406 0-0.703-0.297t-0.297-0.703v-0.219q2.031-8.375 8.438-13.578t15-5.203q4.563 0 8.875 1.734t7.656 4.891l4.063-4.031q0.594-0.594 1.406-0.594t1.406 0.594 0.594 1.406z"></path>
</svg>
