<svg xmlns="http://www.w3.org/2000/svg" width="60" height="56" viewBox="0 0 60 56"><path fill="#444" d="M33.187 22.25v-3.688q0-1.313-.938-2.25T30 15.374t-2.25.938-.94 2.25v19.125q0 5.47-3.937 9.344t-9.47 3.876q-5.56 0-9.483-3.922T-.002 37.5v-8.313h10.25v8.187q0 1.344.938 2.266t2.25.922 2.25-.922.938-2.266V18q0-5.345 3.953-9.126T30 5.094q5.5 0 9.436 3.81t3.938 9.19v4.25l-6.094 1.812zm16.563 6.937H60V37.5q0 5.562-3.922 9.484t-9.484 3.922q-5.53 0-9.47-3.89t-3.937-9.392V29.25l4.094 1.905 6.095-1.813v8.438q0 1.313.938 2.234t2.25.922 2.25-.922.938-2.234v-8.594z"/></svg>