<?xml version="1.0" encoding="utf-8"?>
<!-- Generated by IcoMoon.io -->
<!DOCTYPE svg PUBLIC "-//W3C//DTD SVG 1.1//EN" "http://www.w3.org/Graphics/SVG/1.1/DTD/svg11.dtd">
<svg version="1.1" xmlns="http://www.w3.org/2000/svg" xmlns:xlink="http://www.w3.org/1999/xlink" width="48" height="56" viewBox="0 0 48 56">
<path fill="#444444" d="M8 42q0-0.812-0.594-1.406t-1.406-0.594-1.406 0.594-0.594 1.406 0.594 1.406 1.406 0.594 1.406-0.594 0.594-1.406zM44 24q0-1.594-1.219-2.797t-2.781-1.203h-11q0-1.813 1.5-4.984t1.5-5.016q0-3.063-1-4.531t-4-1.469q-0.812 0.812-1.187 2.656t-0.953 3.922-1.859 3.422q-0.687 0.719-2.406 2.844-0.125 0.156-0.719 0.938t-0.984 1.281-1.078 1.328-1.25 1.375-1.203 1.109-1.25 0.844-1.109 0.281h-1v20h1q0.406 0 0.984 0.094t1.031 0.203 1.187 0.344 1.094 0.359 1.109 0.391 0.906 0.328q6.594 2.281 10.688 2.281h3.781q6 0 6-5.219 0-0.812-0.156-1.75 0.938-0.5 1.484-1.641t0.547-2.297-0.563-2.156q1.656-1.562 1.656-3.719 0-0.781-0.312-1.734t-0.781-1.484q1-0.031 1.672-1.469t0.672-2.531zM48 23.969q0 2.781-1.531 5.094 0.281 1.031 0.281 2.156 0 2.406-1.187 4.5 0.094 0.656 0.094 1.344 0 3.156-1.875 5.562 0.031 4.344-2.656 6.859t-7.094 2.516h-4.031q-3 0-5.922-0.703t-6.766-2.047q-3.625-1.25-4.312-1.25h-9q-1.656 0-2.828-1.172t-1.172-2.828v-20q0-1.656 1.172-2.828t2.828-1.172h8.562q1.125-0.75 4.281-4.844 1.813-2.344 3.344-4 0.75-0.781 1.109-2.672t0.953-3.953 1.938-3.375q1.219-1.156 2.813-1.156 2.625 0 4.719 1.016t3.188 3.172 1.094 5.813q0 2.906-1.5 6h5.5q3.25 0 5.625 2.375t2.375 5.594z"></path>
</svg>
