<?xml version="1.0" encoding="utf-8"?>
<!-- Generated by IcoMoon.io -->
<!DOCTYPE svg PUBLIC "-//W3C//DTD SVG 1.1//EN" "http://www.w3.org/Graphics/SVG/1.1/DTD/svg11.dtd">
<svg version="1.1" xmlns="http://www.w3.org/2000/svg" xmlns:xlink="http://www.w3.org/1999/xlink" width="56" height="56" viewBox="0 0 56 56">
<path fill="#444444" d="M56 11v34q0 1.313-1.219 1.844-0.406 0.156-0.781 0.156-0.844 0-1.406-0.594l-12.594-12.594v5.187q0 3.719-2.641 6.359t-6.359 2.641h-22q-3.719 0-6.359-2.641t-2.641-6.359v-22q0-3.719 2.641-6.359t6.359-2.641h22q3.719 0 6.359 2.641t2.641 6.359v5.156l12.594-12.562q0.563-0.594 1.406-0.594 0.375 0 0.781 0.156 1.219 0.531 1.219 1.844z"></path>
</svg>
